<?xml version="1.0" encoding="UTF-8" standalone="no"?>
<!-- Created with Inkscape (http://www.inkscape.org/) -->

<svg
   xmlns:dc="http://purl.org/dc/elements/1.1/"
   xmlns:cc="http://creativecommons.org/ns#"
   xmlns:rdf="http://www.w3.org/1999/02/22-rdf-syntax-ns#"
   xmlns:svg="http://www.w3.org/2000/svg"
   xmlns="http://www.w3.org/2000/svg"
   xmlns:sodipodi="http://sodipodi.sourceforge.net/DTD/sodipodi-0.dtd"
   xmlns:inkscape="http://www.inkscape.org/namespaces/inkscape"
   width="1080"
   height="1080"
   id="svg2"
   version="1.1"
   inkscape:version="0.48.2 r9819"
   sodipodi:docname="pantilt.svg">
  <defs
     id="defs4" />
  <sodipodi:namedview
     id="base"
     pagecolor="#ffffff"
     bordercolor="#666666"
     borderopacity="1.0"
     inkscape:pageopacity="0.0"
     inkscape:pageshadow="2"
     inkscape:zoom="0.73981481"
     inkscape:cx="454.59324"
     inkscape:cy="538.96401"
     inkscape:document-units="mm"
     inkscape:current-layer="layer1"
     showgrid="false"
     showguides="true"
     inkscape:guide-bbox="true"
     units="mm"
     inkscape:window-width="1280"
     inkscape:window-height="1005"
     inkscape:window-x="1280"
     inkscape:window-y="1043"
     inkscape:window-maximized="0"
     inkscape:snap-global="true"
     inkscape:snap-page="false"
     inkscape:snap-object-midpoints="false"
     inkscape:snap-center="true"
     inkscape:snap-nodes="true" />
  <metadata
     id="metadata7">
    <rdf:RDF>
      <cc:Work
         rdf:about="">
        <dc:format>image/svg+xml</dc:format>
        <dc:type
           rdf:resource="http://purl.org/dc/dcmitype/StillImage" />
        <dc:title></dc:title>
      </cc:Work>
    </rdf:RDF>
  </metadata>
  <g
     inkscape:label="Layer 1"
     inkscape:groupmode="layer"
     id="layer1"
     transform="translate(0,27.637788)">
    <path
       style="fill:none;stroke:#000000;stroke-width:0.12;stroke-miterlimit:4;stroke-opacity:1;stroke-dasharray:none"
       d="m 94.094209,396.86218 -61.06283,-61.09443 c -14.32224,-13.5382 -23.27734,-32.68258 -23.31263,-53.9381 -7e-5,-0.0421 0,-0.0829 0,-0.125 2e-5,-0.0208 0,-0.0416 0,-0.0625 l 0,-0.0312 0,-0.0312 c 0.0285,-17.30576 5.97008,-33.21799 15.90634,-45.84426 l 0,-69.18827 68.46912,0 161.844641,0 142.65703,0 13.71883,0 75.75041,0 0,115.03253 0,0.0312 0,0.0312 c 0,0.0627 1.4e-4,0.12485 0,0.1875 l 0,114.93878 -15.00008,0 0,0.0937 -133.21949,0 -66.34411,0 -116.78189,0 -16.43759,0 -46.187751,0 z"
       id="rect3963-2-0-5-4-4"
       inkscape:connector-curvature="0" />
    <rect
       style="fill:none;stroke:#000000;stroke-width:0.12;stroke-miterlimit:4;stroke-opacity:1;stroke-dasharray:none"
       id="rect4945-0"
       width="230.31496"
       height="230.31496"
       x="-456.0675"
       y="499.56836"
       transform="matrix(0,-1,1,0,0,0)" />
    <rect
       style="fill:none;stroke:#000000;stroke-width:0.12;stroke-miterlimit:4;stroke-opacity:1;stroke-dasharray:none"
       id="rect4945-0-4-9-3"
       width="230.31496"
       height="149.8819"
       x="13.63662"
       y="-13.679962" />
    <rect
       style="fill:none;stroke:#000000;stroke-width:0.12;stroke-miterlimit:4;stroke-opacity:1;stroke-dasharray:none"
       id="rect4945-0-4-9-3-0-1-6"
       width="230.31496"
       height="149.8819"
       x="442.7049"
       y="-487.97812"
       transform="matrix(0,1,-1,0,0,0)" />
    <g
       id="g7695"
       transform="matrix(0,1,-1,0,1534.3,120.55387)">
      <path
         inkscape:connector-curvature="0"
         id="rect3963-5"
         d="m 342.89986,1034.6457 0,-8.5686 c 0,-0.1162 -0.005,-0.2302 0,-0.3452 l 0,-3.0131 0,-207.33997 0,-2.103 c -0.005,-0.1151 0,-0.2287 0,-0.3453 l 0,-8.5998 8.73787,0 456.2572,0 4.60898,0 8.73786,0 0,8.5998 c 0,0.1167 0.005,0.2302 0,0.3453 l 0,2.103 0,207.33997 0,3.0131 c 0.005,0.115 0,0.229 0,0.3452 l 0,8.5686 -8.73786,0 -1.69636,0 -459.16982,0 -8.73787,0 z"
         style="fill:none;stroke:#000000;stroke-width:0.12;stroke-miterlimit:4;stroke-opacity:1;stroke-dasharray:none" />
      <path
         transform="matrix(0.41546282,0,0,-0.41546282,241.36357,1006.1598)"
         d="m 930.9384,270.44681 c 0,15.30816 -12.40972,27.71788 -27.71788,27.71788 -15.30816,0 -27.71788,-12.40972 -27.71788,-27.71788 0,-15.30816 12.40972,-27.71788 27.71788,-27.71788 15.30816,0 27.71788,12.40972 27.71788,27.71788 z"
         sodipodi:ry="27.717878"
         sodipodi:rx="27.717878"
         sodipodi:cy="270.44681"
         sodipodi:cx="903.22052"
         id="path6371-4"
         style="fill:none;stroke:#ff0000;stroke-width:0.28883451;stroke-miterlimit:4;stroke-opacity:1;stroke-dasharray:none"
         sodipodi:type="arc" />
    </g>
    <path
       sodipodi:type="arc"
       style="fill:none;stroke:#ff0000;stroke-width:0.37548485;stroke-miterlimit:4;stroke-opacity:1;stroke-dasharray:none"
       id="path6371-8-0-3-5"
       sodipodi:cx="903.22052"
       sodipodi:cy="270.44681"
       sodipodi:rx="27.717878"
       sodipodi:ry="27.717878"
       d="m 930.9384,270.44681 a 27.717878,27.717878 0 1 1 -55.43576,0 27.717878,27.717878 0 1 1 55.43576,0 z"
       transform="matrix(0.31958679,0,0,0.31958679,-204.53136,195.27747)" />
    <path
       style="fill:none;stroke:#000000;stroke-width:0.12;stroke-miterlimit:4;stroke-opacity:1;stroke-dasharray:none"
       d="m 317.85827,442.33071 0,230.31496 -114.83829,0 -44.3104,0 -31.436,0 -15.65551,0 -15.53051,0 L 35.4342,611.95751 C 20.87436,598.3988 11.75188,579.07044 11.71658,557.61318 l 0,-0.0312 0,-0.0312 c 0,-0.0209 2e-5,-0.0417 0,-0.0625 0,-0.0421 -7e-5,-0.0829 0,-0.125 0.0353,-21.25551 8.98991,-40.39988 23.31139,-53.93807 l 61.05959,-61.0944 46.1853,0 16.43672,0 116.7757,0 42.37299,0 z"
       id="rect3963-2-0-5-4-4-9"
       inkscape:connector-curvature="0" />
    <path
       sodipodi:type="arc"
       style="fill:none;stroke:#ff0000;stroke-width:0.37548485;stroke-miterlimit:4;stroke-opacity:1;stroke-dasharray:none"
       id="path6371-8-0-3-5-3"
       sodipodi:cx="903.22052"
       sodipodi:cy="270.44681"
       sodipodi:rx="27.717878"
       sodipodi:ry="27.717878"
       d="m 930.9384,270.44681 a 27.717878,27.717878 0 1 1 -55.43576,0 27.717878,27.717878 0 1 1 55.43576,0 z"
       transform="matrix(0.31958679,0,0,0.31958679,-202.53136,471.05697)" />
    <g
       id="g7691"
       transform="translate(-8.6483,148.76594)">
      <path
         inkscape:connector-curvature="0"
         id="rect3963-2-0-5-4-4-96"
         d="m 102.09203,560.7035 -61.062841,61.0944 c -14.32216,13.53805 -23.27734,32.6828 -23.31263,53.93808 -7e-5,0.0421 0,0.0829 0,0.125 2e-5,0.0208 0,0.0416 0,0.0625 l 0,0.0312 0,0.0312 c 0.0353,21.45703 9.15834,40.78577 23.71888,54.34433 l 60.656591,60.68815 15.53134,0 15.65631,0 31.43767,0 44.31275,0 197.56357,0 13.71883,0 75.75041,0 0,-115.03248 0,-0.0312 0,-0.0312 c 0,-0.0627 1.4e-4,-0.12485 0,-0.1875 l 0,-114.93873 -15.00008,0 0,-0.0937 -133.21948,0 -66.34411,0 -116.78189,0 -16.43759,0 -46.18773,0 z"
         style="fill:none;stroke:#000000;stroke-width:0.12;stroke-miterlimit:4;stroke-opacity:1;stroke-dasharray:none" />
      <path
         transform="matrix(0.31958679,0,0,0.31958679,-196.53136,589.42971)"
         d="m 930.9384,270.44681 c 0,15.30816 -12.40972,27.71788 -27.71788,27.71788 -15.30816,0 -27.71788,-12.40972 -27.71788,-27.71788 0,-15.30816 12.40972,-27.71788 27.71788,-27.71788 15.30816,0 27.71788,12.40972 27.71788,27.71788 z"
         sodipodi:ry="27.717878"
         sodipodi:rx="27.717878"
         sodipodi:cy="270.44681"
         sodipodi:cx="903.22052"
         id="path6371-8-0-3-5-7"
         style="fill:none;stroke:#ff0000;stroke-width:0.37548485;stroke-miterlimit:4;stroke-opacity:1;stroke-dasharray:none"
         sodipodi:type="arc" />
    </g>
    <path
       sodipodi:type="arc"
       style="fill:none;stroke:#ff0000;stroke-width:0.18699421;stroke-miterlimit:4;stroke-opacity:1;stroke-dasharray:none"
       id="path6301-0-2-5-1-4"
       sodipodi:cx="673.81726"
       sodipodi:cy="321.02628"
       sodipodi:rx="65.556946"
       sodipodi:ry="61.501877"
       d="m 739.37421,321.02628 a 65.556946,61.501877 0 1 1 -131.1139,0 65.556946,61.501877 0 1 1 131.1139,0 z"
       transform="matrix(0.62156696,0,0,0.6625494,-290.02846,-151.43473)" />
    <path
       sodipodi:type="arc"
       style="fill:none;stroke:#ff0000;stroke-width:0.09323448;stroke-miterlimit:4;stroke-opacity:1;stroke-dasharray:none"
       id="path7274"
       sodipodi:cx="54.479965"
       sodipodi:cy="235.56052"
       sodipodi:rx="5.7347336"
       sodipodi:ry="6.6905222"
       d="m 60.214699,235.56052 a 5.7347336,6.6905222 0 1 1 -11.469467,0 5.7347336,6.6905222 0 1 1 11.469467,0 z"
       transform="matrix(1.3902025,0,0,1.1916022,-1.865353,-164.51213)" />
    <path
       sodipodi:type="arc"
       style="fill:none;stroke:#ff0000;stroke-width:0.09323448;stroke-miterlimit:4;stroke-opacity:1;stroke-dasharray:none"
       id="path7274-2"
       sodipodi:cx="54.479965"
       sodipodi:cy="235.56052"
       sodipodi:rx="5.7347336"
       sodipodi:ry="6.6905222"
       d="m 60.214699,235.56052 a 5.7347336,6.6905222 0 1 1 -11.469467,0 5.7347336,6.6905222 0 1 1 11.469467,0 z"
       transform="matrix(-1.3902025,0,0,1.1916022,259.45351,-164.51215)" />
    <path
       sodipodi:type="arc"
       style="fill:none;stroke:#ff0000;stroke-width:0.09323448;stroke-miterlimit:4;stroke-opacity:1;stroke-dasharray:none"
       id="path7274-29"
       sodipodi:cx="54.479965"
       sodipodi:cy="235.56052"
       sodipodi:rx="5.7347336"
       sodipodi:ry="6.6905222"
       d="m 60.214699,235.56052 a 5.7347336,6.6905222 0 1 1 -11.469467,0 5.7347336,6.6905222 0 1 1 11.469467,0 z"
       transform="matrix(1.3902025,0,0,-1.1916022,-1.156834,287.03419)" />
    <path
       sodipodi:type="arc"
       style="fill:none;stroke:#ff0000;stroke-width:0.09323448;stroke-miterlimit:4;stroke-opacity:1;stroke-dasharray:none"
       id="path7274-2-9"
       sodipodi:cx="54.479965"
       sodipodi:cy="235.56052"
       sodipodi:rx="5.7347336"
       sodipodi:ry="6.6905222"
       d="m 60.214699,235.56052 a 5.7347336,6.6905222 0 1 1 -11.469467,0 5.7347336,6.6905222 0 1 1 11.469467,0 z"
       transform="matrix(-1.3902025,0,0,-1.1916022,260.16205,287.03421)" />
    <rect
       style="fill:none;stroke:#000000;stroke-width:0.12;stroke-miterlimit:4;stroke-opacity:1;stroke-dasharray:none"
       id="rect4945-0-4-9-3-7"
       width="230.31496"
       height="149.8819"
       x="256.71426"
       y="-12.772636" />
    <path
       sodipodi:type="arc"
       style="fill:none;stroke:#ff0000;stroke-width:0.18699421;stroke-miterlimit:4;stroke-opacity:1;stroke-dasharray:none"
       id="path6301-0-2-5-1-4-9"
       sodipodi:cx="673.81726"
       sodipodi:cy="321.02628"
       sodipodi:rx="65.556946"
       sodipodi:ry="61.501877"
       d="m 739.37421,321.02628 a 65.556946,61.501877 0 1 1 -131.1139,0 65.556946,61.501877 0 1 1 131.1139,0 z"
       transform="matrix(0.62156696,0,0,0.6625494,-46.950803,-150.52746)" />
    <path
       sodipodi:type="arc"
       style="fill:none;stroke:#ff0000;stroke-width:0.09323448;stroke-miterlimit:4;stroke-opacity:1;stroke-dasharray:none"
       id="path7274-5"
       sodipodi:cx="54.479965"
       sodipodi:cy="235.56052"
       sodipodi:rx="5.7347336"
       sodipodi:ry="6.6905222"
       d="m 60.214699,235.56052 a 5.7347336,6.6905222 0 1 1 -11.469467,0 5.7347336,6.6905222 0 1 1 11.469467,0 z"
       transform="matrix(1.3902025,0,0,1.1916022,241.2123,-163.60485)" />
    <path
       sodipodi:type="arc"
       style="fill:none;stroke:#ff0000;stroke-width:0.09323448;stroke-miterlimit:4;stroke-opacity:1;stroke-dasharray:none"
       id="path7274-2-4"
       sodipodi:cx="54.479965"
       sodipodi:cy="235.56052"
       sodipodi:rx="5.7347336"
       sodipodi:ry="6.6905222"
       d="m 60.214699,235.56052 a 5.7347336,6.6905222 0 1 1 -11.469467,0 5.7347336,6.6905222 0 1 1 11.469467,0 z"
       transform="matrix(-1.3902025,0,0,1.1916022,502.53117,-163.60487)" />
    <path
       sodipodi:type="arc"
       style="fill:none;stroke:#ff0000;stroke-width:0.09323448;stroke-miterlimit:4;stroke-opacity:1;stroke-dasharray:none"
       id="path7274-29-0"
       sodipodi:cx="54.479965"
       sodipodi:cy="235.56052"
       sodipodi:rx="5.7347336"
       sodipodi:ry="6.6905222"
       d="m 60.214699,235.56052 a 5.7347336,6.6905222 0 1 1 -11.469467,0 5.7347336,6.6905222 0 1 1 11.469467,0 z"
       transform="matrix(1.3902025,0,0,-1.1916022,241.21228,287.94147)" />
    <path
       sodipodi:type="arc"
       style="fill:none;stroke:#ff0000;stroke-width:0.09323448;stroke-miterlimit:4;stroke-opacity:1;stroke-dasharray:none"
       id="path7274-2-9-9"
       sodipodi:cx="54.479965"
       sodipodi:cy="235.56052"
       sodipodi:rx="5.7347336"
       sodipodi:ry="6.6905222"
       d="m 60.214699,235.56052 a 5.7347336,6.6905222 0 1 1 -11.469467,0 5.7347336,6.6905222 0 1 1 11.469467,0 z"
       transform="matrix(-1.3902025,0,0,-1.1916022,502.53117,287.94149)" />
    <path
       sodipodi:type="arc"
       style="fill:none;stroke:#ff0000;stroke-width:0.46935606;stroke-miterlimit:4;stroke-opacity:1;stroke-dasharray:none"
       id="path6371-4-9"
       sodipodi:cx="903.22052"
       sodipodi:cy="270.44681"
       sodipodi:rx="27.717878"
       sodipodi:ry="27.717878"
       d="m 930.9384,270.44681 a 27.717878,27.717878 0 1 1 -55.43576,0 27.717878,27.717878 0 1 1 55.43576,0 z"
       transform="matrix(0.25566943,0,0,0.25566943,-182.78925,119.90342)" />
    <path
       sodipodi:type="arc"
       style="fill:none;stroke:#ff0000;stroke-width:0.46935606;stroke-miterlimit:4;stroke-opacity:1;stroke-dasharray:none"
       id="path6371-4-9-4"
       sodipodi:cx="903.22052"
       sodipodi:cy="270.44681"
       sodipodi:rx="27.717878"
       sodipodi:ry="27.717878"
       d="m 930.9384,270.44681 a 27.717878,27.717878 0 1 1 -55.43576,0 27.717878,27.717878 0 1 1 55.43576,0 z"
       transform="matrix(-0.25566943,0,0,0.25566943,464.37747,119.90342)" />
    <path
       sodipodi:type="arc"
       style="fill:none;stroke:#ff0000;stroke-width:0.46935606;stroke-miterlimit:4;stroke-opacity:1;stroke-dasharray:none"
       id="path6371-4-9-32"
       sodipodi:cx="903.22052"
       sodipodi:cy="270.44681"
       sodipodi:rx="27.717878"
       sodipodi:ry="27.717878"
       d="m 930.9384,270.44681 a 27.717878,27.717878 0 1 1 -55.43576,0 27.717878,27.717878 0 1 1 55.43576,0 z"
       transform="matrix(0,-0.25566943,0.25566943,0,396.42022,605.28682)" />
    <path
       sodipodi:type="arc"
       style="fill:none;stroke:#ff0000;stroke-width:0.46935606;stroke-miterlimit:4;stroke-opacity:1;stroke-dasharray:none"
       id="path6371-4-9-4-0"
       sodipodi:cx="903.22052"
       sodipodi:cy="270.44681"
       sodipodi:rx="27.717878"
       sodipodi:ry="27.717878"
       d="m 930.9384,270.44681 a 27.717878,27.717878 0 1 1 -55.43576,0 27.717878,27.717878 0 1 1 55.43576,0 z"
       transform="matrix(0,0.25566943,0.25566943,0,396.42022,-41.87984)" />
    <path
       sodipodi:type="arc"
       style="fill:none;stroke:#ff0000;stroke-width:0.46935606;stroke-miterlimit:4;stroke-opacity:1;stroke-dasharray:none"
       id="path6371-4-9-3-5"
       sodipodi:cx="903.22052"
       sodipodi:cy="270.44681"
       sodipodi:rx="27.717878"
       sodipodi:ry="27.717878"
       d="m 930.9384,270.44681 a 27.717878,27.717878 0 1 1 -55.43576,0 27.717878,27.717878 0 1 1 55.43576,0 z"
       transform="matrix(0,-0.25566943,0.25566943,0,396.42022,512.62935)" />
    <path
       sodipodi:type="arc"
       style="fill:none;stroke:#ff0000;stroke-width:0.46935606;stroke-miterlimit:4;stroke-opacity:1;stroke-dasharray:none"
       id="path6371-4-9-32-8"
       sodipodi:cx="903.22052"
       sodipodi:cy="270.44681"
       sodipodi:rx="27.717878"
       sodipodi:ry="27.717878"
       d="m 930.9384,270.44681 a 27.717878,27.717878 0 1 1 -55.43576,0 27.717878,27.717878 0 1 1 55.43576,0 z"
       transform="matrix(0,-0.25566943,0.25566943,0,226.21332,881.0715)" />
    <path
       sodipodi:type="arc"
       style="fill:none;stroke:#ff0000;stroke-width:0.46935606;stroke-miterlimit:4;stroke-opacity:1;stroke-dasharray:none"
       id="path6371-4-9-4-0-6"
       sodipodi:cx="903.22052"
       sodipodi:cy="270.44681"
       sodipodi:rx="27.717878"
       sodipodi:ry="27.717878"
       d="m 930.9384,270.44681 a 27.717878,27.717878 0 1 1 -55.43576,0 27.717878,27.717878 0 1 1 55.43576,0 z"
       transform="matrix(0,0.25566943,0.25566943,0,226.2133,233.9048)" />
    <path
       sodipodi:type="arc"
       style="fill:none;stroke:#ff0000;stroke-width:0.46935606;stroke-miterlimit:4;stroke-opacity:1;stroke-dasharray:none"
       id="path6371-4-9-3-5-2"
       sodipodi:cx="903.22052"
       sodipodi:cy="270.44681"
       sodipodi:rx="27.717878"
       sodipodi:ry="27.717878"
       d="m 930.9384,270.44681 a 27.717878,27.717878 0 1 1 -55.43576,0 27.717878,27.717878 0 1 1 55.43576,0 z"
       transform="matrix(0,-0.25566943,0.25566943,0,226.21332,788.41397)" />
    <path
       sodipodi:type="arc"
       style="fill:none;stroke:#ff0000;stroke-width:0.46935606;stroke-miterlimit:4;stroke-opacity:1;stroke-dasharray:none"
       id="path6371-4-9-32-4"
       sodipodi:cx="903.22052"
       sodipodi:cy="270.44681"
       sodipodi:rx="27.717878"
       sodipodi:ry="27.717878"
       d="m 930.9384,270.44681 a 27.717878,27.717878 0 1 1 -55.43576,0 27.717878,27.717878 0 1 1 55.43576,0 z"
       transform="matrix(0,0.25566943,0.25566943,0,638.23826,202.6416)" />
    <path
       sodipodi:type="arc"
       style="fill:none;stroke:#ff0000;stroke-width:0.46935606;stroke-miterlimit:4;stroke-opacity:1;stroke-dasharray:none"
       id="path6371-4-9-4-0-1"
       sodipodi:cx="903.22052"
       sodipodi:cy="270.44681"
       sodipodi:rx="27.717878"
       sodipodi:ry="27.717878"
       d="m 930.9384,270.44681 a 27.717878,27.717878 0 1 1 -55.43576,0 27.717878,27.717878 0 1 1 55.43576,0 z"
       transform="matrix(0,-0.25566943,0.25566943,0,452.9233,664.49335)" />
    <path
       sodipodi:type="arc"
       style="fill:none;stroke:#ff0000;stroke-width:0.46935606;stroke-miterlimit:4;stroke-opacity:1;stroke-dasharray:none"
       id="path6371-4-9-32-4-3"
       sodipodi:cx="903.22052"
       sodipodi:cy="270.44681"
       sodipodi:rx="27.717878"
       sodipodi:ry="27.717878"
       d="m 930.9384,270.44681 a 27.717878,27.717878 0 1 1 -55.43576,0 27.717878,27.717878 0 1 1 55.43576,0 z"
       transform="matrix(0,0.25566943,-0.25566943,0,776.52823,17.32668)" />
    <path
       sodipodi:type="arc"
       style="fill:none;stroke:#ff0000;stroke-width:0.46935606;stroke-miterlimit:4;stroke-opacity:1;stroke-dasharray:none"
       id="path6371-4-9-4-0-1-8"
       sodipodi:cx="903.22052"
       sodipodi:cy="270.44681"
       sodipodi:rx="27.717878"
       sodipodi:ry="27.717878"
       d="m 930.9384,270.44681 a 27.717878,27.717878 0 1 1 -55.43576,0 27.717878,27.717878 0 1 1 55.43576,0 z"
       transform="matrix(0,-0.25566943,-0.25566943,0,591.21327,479.17841)" />
    <rect
       style="fill:none;stroke:#000000;stroke-width:0.12;stroke-miterlimit:4;stroke-opacity:1;stroke-dasharray:none"
       id="rect4945-0-6"
       width="230.31496"
       height="230.31496"
       x="499.56836"
       y="-12.247437" />
    <path
       sodipodi:type="arc"
       style="fill:none;stroke:#ff0000;stroke-width:0.46935606;stroke-miterlimit:4;stroke-opacity:1;stroke-dasharray:none"
       id="path6371-4-9-32-4-8"
       sodipodi:cx="903.22052"
       sodipodi:cy="270.44681"
       sodipodi:rx="27.717878"
       sodipodi:ry="27.717878"
       d="m 930.9384,270.44681 a 27.717878,27.717878 0 1 1 -55.43576,0 27.717878,27.717878 0 1 1 55.43576,0 z"
       transform="matrix(-0.25566943,0,0,0.25566943,938.30912,126.42249)" />
    <path
       sodipodi:type="arc"
       style="fill:none;stroke:#ff0000;stroke-width:0.46935606;stroke-miterlimit:4;stroke-opacity:1;stroke-dasharray:none"
       id="path6371-4-9-4-0-1-7"
       sodipodi:cx="903.22052"
       sodipodi:cy="270.44681"
       sodipodi:rx="27.717878"
       sodipodi:ry="27.717878"
       d="m 930.9384,270.44681 a 27.717878,27.717878 0 1 1 -55.43576,0 27.717878,27.717878 0 1 1 55.43576,0 z"
       transform="matrix(0.25566943,0,0,0.25566943,291.14241,126.42249)" />
    <path
       sodipodi:type="arc"
       style="fill:none;stroke:#ff0000;stroke-width:0.46935606;stroke-miterlimit:4;stroke-opacity:1;stroke-dasharray:none"
       id="path6371-4-9-32-4-3-8"
       sodipodi:cx="903.22052"
       sodipodi:cy="270.44681"
       sodipodi:rx="27.717878"
       sodipodi:ry="27.717878"
       d="m 930.9384,270.44681 a 27.717878,27.717878 0 1 1 -55.43576,0 27.717878,27.717878 0 1 1 55.43576,0 z"
       transform="matrix(-0.25566943,0,0,-0.25566943,938.30912,79.39754)" />
    <path
       sodipodi:type="arc"
       style="fill:none;stroke:#ff0000;stroke-width:0.46935606;stroke-miterlimit:4;stroke-opacity:1;stroke-dasharray:none"
       id="path6371-4-9-4-0-1-8-2"
       sodipodi:cx="903.22052"
       sodipodi:cy="270.44681"
       sodipodi:rx="27.717878"
       sodipodi:ry="27.717878"
       d="m 930.9384,270.44681 a 27.717878,27.717878 0 1 1 -55.43576,0 27.717878,27.717878 0 1 1 55.43576,0 z"
       transform="matrix(0.25566943,0,0,-0.25566943,291.14241,79.39752)" />
  </g>
</svg>
